<svg xmlns="http://www.w3.org/2000/svg" viewBox="0 0 95.43 77.53"><path d="M95.43,9.21a39.55,39.55,0,0,1-11.26,3,19.54,19.54,0,0,0,8.6-10.78A38.64,38.64,0,0,1,80.36,6.18,19.57,19.57,0,0,0,46.52,19.57,22.34,22.34,0,0,0,47,24.05,55.6,55.6,0,0,1,6.67,3.58a19.61,19.61,0,0,0,6.06,26.17,19.75,19.75,0,0,1-8.84-2.49v.24A19.56,19.56,0,0,0,19.56,46.7a20.3,20.3,0,0,1-5.14.66,26.39,26.39,0,0,1-3.7-.29A19.59,19.59,0,0,0,29,60.63,39.14,39.14,0,0,1,4.72,69,38.55,38.55,0,0,1,0,68.75a55.33,55.33,0,0,0,30,8.78c36,0,55.64-29.8,55.64-55.66,0-.85,0-1.7-.06-2.55A41.87,41.87,0,0,0,95.43,9.21Z" fill="#fff"/></svg>