<svg xmlns="http://www.w3.org/2000/svg" viewBox="0 0 414.15 497.83"><path d="M336.2,80.28l-64,19.37c-6.38,1.93-12.76,3.85-19.12,5.82-2.09.65-4.14,1.31-7.18.17L202.55,35.45c-8.08,1.86-63.46,29.13-68.18,33.74l49.82,79.5c.43-11.27-2.17-22-2.14-33.09,7.4-3.78,15.46-4,22.59-6.83,3.11-12.55,8.34-18.08,17.26-18.36,7.36-.22,14.14,4.89,16.34,12.32a16.39,16.39,0,0,1-7.07,18.68c-7.72,5-15.38,3.51-24.26-4.71a138.94,138.94,0,0,0-16.12,4c-.69,4,3,37.51,5,45.15l78.93,20.45,17.72-31.15c-3.77-4.71-6.2-9.9-5-16.09a16.64,16.64,0,0,1,5-9,16.88,16.88,0,0,1,19.9-2.65,17.31,17.31,0,0,1,8.42,18.73c-2.16,8.83-8.22,12.61-21.81,13.29l-13.72,24.16,34.08,5.74c7.89-10,15-12.65,23.21-8.94a16.74,16.74,0,0,1,9.65,18.91c-1.4,7.21-8.63,13.08-16.65,13.51-8.36.46-13.9-4.37-17.34-15.52-11.71-2.59-23.88-4.1-36-6.26-15.83,13-30.88,26.65-46.22,40-19.51,16.93-38.91,34-58.42,50.91a16.21,16.21,0,0,0-5,7.22c-4.64,13.72-9.45,27.39-14.13,41.1-.47,1.37-1.34,2.72-.8,4.8,13.46,3.73,27.61,5.87,40.56,9.7,1.71,3.25.83,5.46.17,7.7q-8.24,28-16.44,56.09c-.46,1.58-.86,3.18-1.26,4.66,8.89,8.09,10.74,16.51,5.69,25a16.2,16.2,0,0,1-19.05,7.14A17.66,17.66,0,0,1,155.31,428c.28-9,5.92-14.62,17.72-17.17,5.77-19.61,11.63-39.5,17.64-59.94-14.14-4.06-28.29-6.11-41.3-10-1.84-2.77-1.24-4.85-.52-6.92,5.82-16.84,11.67-33.67,17.42-50.54,1-2.87,3-4.69,5.17-6.56q45.6-39.75,91.16-79.55c1.48-1.3,3.23-2.36,4.6-5l-65.07-16.88c-.29,2.4,1.11,3.54,1.94,4.88,6.33,10.19,12.73,20.34,19.1,30.5,1.32,2.12,2.92,4.18,1.54,6.89-3.62,2.56-82.24,20.72-88.51,20.17L54.4,131.87,8.88,181.81C14.29,188,19.25,194,24.64,199.65c3.46,3.62,5.5,7.38,4.58,12.46a2.19,2.19,0,0,0,.79,2.48c6.93-5.75,14.58-7.27,22.12-1.37,7.92,6.2,8.73,14.44,4.93,23.7l32,34.61,14.84-11.29c-1-13.29,2.56-20.22,11.7-23.23a15.92,15.92,0,0,1,18.78,6.6c4.34,6.8,3.73,15.79-1.45,21.35-5.82,6.24-13.46,6.74-23.9,1.19L94.29,277.38c-5.65,4.28-6.42,4.25-11.19-.87-10.54-11.35-21-22.73-31.66-34.2-4.12.84-8,2.38-12.29,1.29a22.47,22.47,0,0,1-10.45-6.23c-1.89,2.73-.75,5.22-.05,7.61,5.94,20.29,12.24,40.49,17.76,60.9A42.4,42.4,0,0,0,59,326.72C72.07,338.86,84.58,351.58,97.34,364c1.2,1.16,2.59,2.12,4,3.23,0,24.56-2.26,48.62-2.35,72.59,10.6,5.55,14.36,11.22,11.51,21.72-2.14,7.89-9.76,12.5-18.15,11.78a17.13,17.13,0,0,1-15.09-13.83c-1.51-9.18,2.11-14.6,13.7-19.87q1.35-33.66,2.75-68.18c-5.12-5.08-10.17-10.14-15.26-15.14q-16.05-15.76-32.15-31.48a15.65,15.65,0,0,1-4.3-7.13q-10.22-35-20.66-70c-2.29-7.61-.79-15.21-.6-22.82.14-5.49.58-11,.9-16.75q-6.85-7.86-13.74-15.75c-1.87-2.14-3.79-4.23-5.6-6.4-3-3.65-3.06-5.08.13-8.59q23.69-26.1,47.44-52.14c4.19-4.59,5.91-4.44,9.82.63q38.31,49.68,76.6,99.39c1.21,1.57,2.47,3.12,4,5.08l75.15-17.19L128.17,73.94,94.33,102.12c1.94,13.12-1.09,20.63-9.45,24.14-6.81,2.87-14.77.57-19.66-5.66a16.38,16.38,0,0,1-.62-20c5.22-7,13.58-8.61,24.43-4.26l34.3-28.52c.44-1.47.86-2.89,1.49-5,25.35-12,51.07-24.15,76.81-36.28,1.23-.58,2.6-.53,4.84.49l43.91,71.14,77.67-23.72c-11.12-22-22-43.59-33.35-66L245.81,23.26c-2.68,12.51-7.5,17.63-16.5,17.87a17.72,17.72,0,0,1-17.49-13,16.46,16.46,0,0,1,8.4-18.58c7.84-4.24,15-2.38,22.51,5.9,1.66.49,3.18-.34,4.74-.81L291.94,1.19C294,.56,296-.28,299.06.09l39.19,77.2a31.21,31.21,0,0,1,2.56-3.08,16.2,16.2,0,0,1,19-2.61,15.87,15.87,0,0,1,8.69,17,16,16,0,0,0,1,8.27Q391.14,159.42,412.74,222c.81,2.33,2.09,4.61,1,8.24l-118,116.94c4.75,38.59,9.52,77.37,14.25,115.89,12,4.29,16.52,9.95,15.5,18.86a17.76,17.76,0,0,1-15.59,15.8c-7.1.88-14.36-3.87-17.12-11.19-3.11-8.25-.25-15.1,9.16-21.57.72-4-.54-8.09-1-12.14-3.47-29.27-7.13-58.51-10.74-87.77-.65-5.28-1.19-10.59-2-15.85-.57-3.68.71-6.26,3.32-8.83q55.14-54.45,110.15-109a52.82,52.82,0,0,1,4.82-3.8L362.61,100.7a5.73,5.73,0,0,0-3.4,1.07c-5.91,3-11.67,2.69-16.93-1.28s-7.33-9.7-6.57-16.32c.15-1.32.72-2.6.42-4l.2-.08ZM51.43,227.72c.1-5.56-4.19-10.33-9.33-10.39-4.73-.05-8.89,4.43-8.89,9.59a9.34,9.34,0,0,0,9.19,9.3A8.31,8.31,0,0,0,51.43,227.72ZM171.89,419.23a9.13,9.13,0,0,0-8.76,9.61c.14,5.45,4.39,9.67,9.53,9.45a9.13,9.13,0,0,0,8.55-9.31C181.18,423.57,177,419.14,171.89,419.23ZM318,480a8.84,8.84,0,0,0-9.09-8.58c-5.22.22-9.79,4.8-9.54,9.56s4.54,9,8.94,9.11C313.19,490.18,318.06,485.11,318,480Zm27-284.3c0-4.73-4.46-9.17-9.31-9.2s-9.32,4.56-9.32,9.74a8.73,8.73,0,0,0,8.28,8.85C339.75,205.29,344.9,200.62,344.93,195.71ZM94.1,447.81c-5.47,0-9.64,3.84-9.53,8.71s4.87,9.53,9.81,9.37a9.68,9.68,0,0,0,9.18-9.38C103.62,451.47,99.62,447.79,94.1,447.81ZM87.49,110.68c.27-5.21-3.06-9-8.17-9.34s-9.78,3.58-10.09,8.28,4.13,9.79,9,10.12S87.22,116,87.49,110.68ZM304.32,133.1a9.14,9.14,0,0,0-9.34,9,9,9,0,0,0,9,9.33,9.11,9.11,0,0,0,9.37-9A9.22,9.22,0,0,0,304.32,133.1ZM129.44,253.31c0-5.57-3.67-9.41-8.85-9.3a9.71,9.71,0,0,0-9.44,9.13c-.13,5.05,4.31,9.2,9.78,9.16C126.11,262.25,129.46,258.71,129.44,253.31ZM229,33.35a8.13,8.13,0,0,0,8.28-8.63c-.13-5.4-4.45-9.77-9.44-9.54a9.33,9.33,0,0,0-8.78,9.11C219.17,29.28,223.76,33.46,229,33.35ZM361.09,86.16c0-4.56-4.41-8.82-9.14-8.82s-8.62,4.25-8.72,9.21S347.07,96,351.59,96C356.3,96.06,361.07,91.09,361.09,86.16ZM221.45,116.37c5.49,0,9.82-4,9.75-9.09a9.18,9.18,0,0,0-8.78-9c-5-.1-9.24,4.27-9.29,9.65C213.08,112.94,216.39,116.33,221.45,116.37Z" fill="#007299"/><path d="M310.42,257.21l-72.74,65.18c2.5,33.24,5,66.71,7.51,99.95,11.83,5.82,15.68,11.8,13.89,21.12a16.59,16.59,0,0,1-15.18,13c-8.12.48-15.11-4.15-17.32-11.49-2.58-8.58.68-15.38,10.62-21.63.26-7.27-.86-14.69-1.37-22.12-1.38-20.09-3-40.16-4.55-60.24-.42-5.48-.56-11-1.21-16.43-.49-4.11,1-6.82,4-9.49q33.81-30,67.38-60.3c1.23-1.1,2.69-2,3.46-3.52-2.61-11.63-.19-18.7,7.76-22.71a17.56,17.56,0,0,1,21,4,16.38,16.38,0,0,1,1.05,20.32C329.63,260,321.3,261.62,310.42,257.21Zm10.11-5c5.08.07,9.5-4,9.57-8.81s-4.35-9-9.35-9.1-9.47,4-9.53,8.86S315.42,252.15,320.53,252.23Zm-68.85,187.7a9,9,0,0,0-9-9.24,9.13,9.13,0,1,0,9,9.24Z" fill="#007299"/></svg>