<svg xmlns="http://www.w3.org/2000/svg" viewBox="0 0 492 306"><path d="M2,0H1V2H2ZM9,0H7V2H9Zm7,0H14V2h2Zm7,0H21V2h2Zm7,0H28V2h2Zm7,0H35V2h2Zm7,0H42V2h2Zm7,0H49V2h2Zm7,0H56V2h2Zm7,0H63V2h2Zm7,0H70V2h2Zm7,0H77V2h2Zm7,0H84V2h2Zm7,0H91V2h2Zm7,0H98V2h2Zm7,0h-2V2h2Zm7,0h-2V2h2Zm7,0h-2V2h2Zm7,0h-2V2h2Zm7,0h-2V2h2Zm7,0h-2V2h2Zm7,0h-2V2h2Zm7,0h-2V2h2Zm7,0h-2V2h2Zm7,0h-2V2h2Zm7,0h-2V2h2Zm7,0h-2V2h2Zm7,0h-2V2h2Zm7,0h-2V2h2Zm7,0h-2V2h2Zm7,0h-2V2h2Zm7,0h-2V2h2Zm7,0h-2V2h2Zm7,0h-2V2h2Zm7,0h-2V2h2Zm7,0h-2V2h2Zm7,0h-2V2h2Zm7,0h-2V2h2Zm7,0h-2V2h2Zm7,0h-2V2h2Zm7,0h-2V2h2Zm7,0h-2V2h2Zm7,0h-2V2h2Zm7,0h-2V2h2Zm7,0h-2V2h2Zm7,0h-2V2h2Zm7,0h-2V2h2Zm7,0h-2V2h2Zm7,0h-2V2h2Zm7,0h-2V2h2Zm7,0h-2V2h2Zm7,0h-2V2h2Zm7,0h-2V2h2Zm7,0h-2V2h2Zm7,0h-2V2h2Zm7,0h-2V2h2Zm7,0h-2V2h2Zm7,0h-2V2h2Zm7,0h-2V2h2Zm7,0h-2V2h2Zm7,0h-2V2h2Zm7,0h-2V2h2Zm7,0h-2V2h2Zm7,0h-2V2h2Zm7,0h-2V2h2Zm7,0h-2V2h2Zm7,0h-2V2h2Zm7,0h-2V2h2Zm7,0h-2V2h2Zm7,0h-2V2h2Zm6,0h-1V2h1Zm1,2V1h-2V2Zm0,7.07v-2h-2v2Zm0,7.07v-2h-2v2Zm0,7.07v-2h-2v2Zm0,7.07v-2h-2v2Zm0,7.07v-2h-2v2Zm0,7.07v-2h-2v2Zm0,7.07v-2h-2v2Zm0,7.07v-2h-2v2Zm0,7.07v-2h-2v2Zm0,7.07v-2h-2v2Zm0,7.07v-2h-2v2Zm0,7.07v-2h-2v2Zm0,7.07v-2h-2v2Zm0,7.07V99h-2v2Zm0,7.07v-2h-2v2Zm0,7.07v-2h-2v2Zm0,7.07v-2h-2v2Zm0,7.07v-2h-2v2Zm0,7.07v-2h-2v2Zm0,7.07v-2h-2v2Zm0,7.07v-2h-2v2Zm0,7.06v-2h-2v2Zm0,7.07v-2h-2v2Zm0,7.07v-2h-2v2Zm0,7.07v-2h-2v2Zm0,7.07v-2h-2v2Zm0,7.07v-2h-2v2Zm0,7.07v-2h-2v2Zm0,7.07v-2h-2v2Zm0,7.07v-2h-2v2Zm0,7.07v-2h-2v2Zm0,7.07v-2h-2v2Zm0,7.07v-2h-2v2Zm0,7.07v-2h-2v2Zm0,7.07v-2h-2v2Zm0,7.07v-2h-2v2Zm0,7.07v-2h-2v2Zm0,7.07v-2h-2v2Zm0,7.07v-2h-2v2Zm0,7.07v-2h-2v2Zm0,7.07v-2h-2v2Zm0,7.07v-2h-2v2Zm0,6.06v-1h-2v1Zm-2,1h1v-2h-1Zm-7,0h2v-2h-2Zm-7,0h2v-2h-2Zm-7,0h2v-2h-2Zm-7,0h2v-2h-2Zm-7,0h2v-2h-2Zm-7,0h2v-2h-2Zm-7,0h2v-2h-2Zm-7,0h2v-2h-2Zm-7,0h2v-2h-2Zm-7,0h2v-2h-2Zm-7,0h2v-2h-2Zm-7,0h2v-2h-2Zm-7,0h2v-2h-2Zm-7,0h2v-2h-2Zm-7,0h2v-2h-2Zm-7,0h2v-2h-2Zm-7,0h2v-2h-2Zm-7,0h2v-2h-2Zm-7,0h2v-2h-2Zm-7,0h2v-2h-2Zm-7,0h2v-2h-2Zm-7,0h2v-2h-2Zm-7,0h2v-2h-2Zm-7,0h2v-2h-2Zm-7,0h2v-2h-2Zm-7,0h2v-2h-2Zm-7,0h2v-2h-2Zm-7,0h2v-2h-2Zm-7,0h2v-2h-2Zm-7,0h2v-2h-2Zm-7,0h2v-2h-2Zm-7,0h2v-2h-2Zm-7,0h2v-2h-2Zm-7,0h2v-2h-2Zm-7,0h2v-2h-2Zm-7,0h2v-2h-2Zm-7,0h2v-2h-2Zm-7,0h2v-2h-2Zm-7,0h2v-2h-2Zm-7,0h2v-2h-2Zm-7,0h2v-2h-2Zm-7,0h2v-2h-2Zm-7,0h2v-2h-2Zm-7,0h2v-2h-2Zm-7,0h2v-2h-2Zm-7,0h2v-2h-2Zm-7,0h2v-2h-2Zm-7,0h2v-2h-2Zm-7,0h2v-2h-2Zm-7,0h2v-2h-2Zm-7,0h2v-2h-2Zm-7,0h2v-2h-2Zm-7,0h2v-2h-2Zm-7,0h2v-2h-2Zm-7,0h2v-2h-2Zm-7,0h2v-2H98Zm-7,0h2v-2H91Zm-7,0h2v-2H84Zm-7,0h2v-2H77Zm-7,0h2v-2H70Zm-7,0h2v-2H63Zm-7,0h2v-2H56Zm-7,0h2v-2H49Zm-7,0h2v-2H42Zm-7,0h2v-2H35Zm-7,0h2v-2H28Zm-7,0h2v-2H21Zm-7,0h2v-2H14Zm-7,0H9v-2H7Zm-6,0H2v-2H1Zm-1-2v1H2v-1Zm0-7.07v2H2v-2Zm0-7.07v2H2v-2Zm0-7.07v2H2v-2Zm0-7.07v2H2v-2Zm0-7.07v2H2v-2Zm0-7.07v2H2v-2Zm0-7.07v2H2v-2Zm0-7.07v2H2v-2Zm0-7.07v2H2v-2Zm0-7.07v2H2v-2Zm0-7.07v2H2v-2Zm0-7.07v2H2v-2Zm0-7.07v2H2v-2ZM0,205v2H2v-2Zm0-7.07v2H2v-2Zm0-7.07v2H2v-2Zm0-7.07v2H2v-2Zm0-7.07v2H2v-2Zm0-7.07v2H2v-2Zm0-7.07v2H2v-2Zm0-7.06v2H2v-2Zm0-7.07v2H2v-2Zm0-7.07v2H2v-2Zm0-7.07v2H2v-2Zm0-7.07v2H2v-2Zm0-7.07v2H2v-2Zm0-7.07v2H2v-2ZM0,106v2H2v-2ZM0,99v2H2V99ZM0,91.9v2H2v-2Zm0-7.07v2H2v-2Zm0-7.07v2H2v-2Zm0-7.07v2H2v-2Zm0-7.07v2H2v-2Zm0-7.07v2H2v-2Zm0-7.07v2H2v-2Zm0-7.07v2H2v-2Zm0-7.07v2H2v-2Zm0-7.07v2H2v-2ZM0,21.2v2H2v-2Zm0-7.07v2H2v-2ZM0,7.06v2H2v-2ZM0,1V2H2V1ZM1,305H0v1H1Zm490,0v1h1v-1ZM491,1h1V0h-1ZM1,1V0H0V1ZM2,.5H1v1H2Zm7,0H7v1H9Zm7,0H14v1h2Zm7,0H21v1h2Zm7,0H28v1h2Zm7,0H35v1h2Zm7,0H42v1h2Zm7,0H49v1h2Zm7,0H56v1h2Zm7,0H63v1h2Zm7,0H70v1h2Zm7,0H77v1h2Zm7,0H84v1h2Zm7,0H91v1h2Zm7,0H98v1h2Zm7,0h-2v1h2Zm7,0h-2v1h2Zm7,0h-2v1h2Zm7,0h-2v1h2Zm7,0h-2v1h2Zm7,0h-2v1h2Zm7,0h-2v1h2Zm7,0h-2v1h2Zm7,0h-2v1h2Zm7,0h-2v1h2Zm7,0h-2v1h2Zm7,0h-2v1h2Zm7,0h-2v1h2Zm7,0h-2v1h2Zm7,0h-2v1h2Zm7,0h-2v1h2Zm7,0h-2v1h2Zm7,0h-2v1h2Zm7,0h-2v1h2Zm7,0h-2v1h2Zm7,0h-2v1h2Zm7,0h-2v1h2Zm7,0h-2v1h2Zm7,0h-2v1h2Zm7,0h-2v1h2Zm7,0h-2v1h2Zm7,0h-2v1h2Zm7,0h-2v1h2Zm7,0h-2v1h2Zm7,0h-2v1h2Zm7,0h-2v1h2Zm7,0h-2v1h2Zm7,0h-2v1h2Zm7,0h-2v1h2Zm7,0h-2v1h2Zm7,0h-2v1h2Zm7,0h-2v1h2Zm7,0h-2v1h2Zm7,0h-2v1h2Zm7,0h-2v1h2Zm7,0h-2v1h2Zm7,0h-2v1h2Zm7,0h-2v1h2Zm7,0h-2v1h2Zm7,0h-2v1h2Zm7,0h-2v1h2Zm7,0h-2v1h2Zm7,0h-2v1h2Zm7,0h-2v1h2Zm7,0h-2v1h2Zm7,0h-2v1h2Zm7,0h-2v1h2Zm7,0h-2v1h2Zm7,0h-2v1h2Zm7,0h-2v1h2Zm6,0h-1v1h1ZM491.5,2V1h-1V2Zm0,7.07v-2h-1v2Zm0,7.07v-2h-1v2Zm0,7.07v-2h-1v2Zm0,7.07v-2h-1v2Zm0,7.07v-2h-1v2Zm0,7.07v-2h-1v2Zm0,7.07v-2h-1v2Zm0,7.07v-2h-1v2Zm0,7.07v-2h-1v2Zm0,7.07v-2h-1v2Zm0,7.07v-2h-1v2Zm0,7.07v-2h-1v2Zm0,7.07v-2h-1v2Zm0,7.07V99h-1v2Zm0,7.07v-2h-1v2Zm0,7.07v-2h-1v2Zm0,7.07v-2h-1v2Zm0,7.07v-2h-1v2Zm0,7.07v-2h-1v2Zm0,7.07v-2h-1v2Zm0,7.07v-2h-1v2Zm0,7.06v-2h-1v2Zm0,7.07v-2h-1v2Zm0,7.07v-2h-1v2Zm0,7.07v-2h-1v2Zm0,7.07v-2h-1v2Zm0,7.07v-2h-1v2Zm0,7.07v-2h-1v2Zm0,7.07v-2h-1v2Zm0,7.07v-2h-1v2Zm0,7.07v-2h-1v2Zm0,7.07v-2h-1v2Zm0,7.07v-2h-1v2Zm0,7.07v-2h-1v2Zm0,7.07v-2h-1v2Zm0,7.07v-2h-1v2Zm0,7.07v-2h-1v2Zm0,7.07v-2h-1v2Zm0,7.07v-2h-1v2Zm0,7.07v-2h-1v2Zm0,7.07v-2h-1v2Zm0,7.07v-2h-1v2Zm0,6.06v-1h-1v1Zm-1.5.5h1v-1h-1Zm-7,0h2v-1h-2Zm-7,0h2v-1h-2Zm-7,0h2v-1h-2Zm-7,0h2v-1h-2Zm-7,0h2v-1h-2Zm-7,0h2v-1h-2Zm-7,0h2v-1h-2Zm-7,0h2v-1h-2Zm-7,0h2v-1h-2Zm-7,0h2v-1h-2Zm-7,0h2v-1h-2Zm-7,0h2v-1h-2Zm-7,0h2v-1h-2Zm-7,0h2v-1h-2Zm-7,0h2v-1h-2Zm-7,0h2v-1h-2Zm-7,0h2v-1h-2Zm-7,0h2v-1h-2Zm-7,0h2v-1h-2Zm-7,0h2v-1h-2Zm-7,0h2v-1h-2Zm-7,0h2v-1h-2Zm-7,0h2v-1h-2Zm-7,0h2v-1h-2Zm-7,0h2v-1h-2Zm-7,0h2v-1h-2Zm-7,0h2v-1h-2Zm-7,0h2v-1h-2Zm-7,0h2v-1h-2Zm-7,0h2v-1h-2Zm-7,0h2v-1h-2Zm-7,0h2v-1h-2Zm-7,0h2v-1h-2Zm-7,0h2v-1h-2Zm-7,0h2v-1h-2Zm-7,0h2v-1h-2Zm-7,0h2v-1h-2Zm-7,0h2v-1h-2Zm-7,0h2v-1h-2Zm-7,0h2v-1h-2Zm-7,0h2v-1h-2Zm-7,0h2v-1h-2Zm-7,0h2v-1h-2Zm-7,0h2v-1h-2Zm-7,0h2v-1h-2Zm-7,0h2v-1h-2Zm-7,0h2v-1h-2Zm-7,0h2v-1h-2Zm-7,0h2v-1h-2Zm-7,0h2v-1h-2Zm-7,0h2v-1h-2Zm-7,0h2v-1h-2Zm-7,0h2v-1h-2Zm-7,0h2v-1h-2Zm-7,0h2v-1h-2Zm-7,0h2v-1H98Zm-7,0h2v-1H91Zm-7,0h2v-1H84Zm-7,0h2v-1H77Zm-7,0h2v-1H70Zm-7,0h2v-1H63Zm-7,0h2v-1H56Zm-7,0h2v-1H49Zm-7,0h2v-1H42Zm-7,0h2v-1H35Zm-7,0h2v-1H28Zm-7,0h2v-1H21Zm-7,0h2v-1H14Zm-7,0H9v-1H7Zm-6,0H2v-1H1ZM.5,304v1h1v-1Zm0-7.07v2h1v-2Zm0-7.07v2h1v-2Zm0-7.07v2h1v-2Zm0-7.07v2h1v-2Zm0-7.07v2h1v-2Zm0-7.07v2h1v-2Zm0-7.07v2h1v-2Zm0-7.07v2h1v-2Zm0-7.07v2h1v-2Zm0-7.07v2h1v-2Zm0-7.07v2h1v-2Zm0-7.07v2h1v-2Zm0-7.07v2h1v-2ZM.5,205v2h1v-2Zm0-7.07v2h1v-2Zm0-7.07v2h1v-2Zm0-7.07v2h1v-2Zm0-7.07v2h1v-2Zm0-7.07v2h1v-2Zm0-7.07v2h1v-2Zm0-7.06v2h1v-2Zm0-7.07v2h1v-2Zm0-7.07v2h1v-2Zm0-7.07v2h1v-2Zm0-7.07v2h1v-2Zm0-7.07v2h1v-2Zm0-7.07v2h1v-2ZM.5,106v2h1v-2ZM.5,99v2h1V99Zm0-7.07v2h1v-2Zm0-7.07v2h1v-2Zm0-7.07v2h1v-2Zm0-7.07v2h1v-2Zm0-7.07v2h1v-2Zm0-7.07v2h1v-2Zm0-7.07v2h1v-2Zm0-7.07v2h1v-2Zm0-7.07v2h1v-2Zm0-7.07v2h1v-2Zm0-7.07v2h1v-2Zm0-7.07v2h1v-2Zm0-7.07v2h1v-2ZM.5,1V2h1V1ZM1,305H.5v.5H1Zm490,0v.5h.5V305ZM491,1h.5V.5H491ZM1,1V.5H.5V1Z" fill="#ddd"/></svg>