<svg xmlns="http://www.w3.org/2000/svg" xmlns:xlink="http://www.w3.org/1999/xlink" viewBox="0 0 492 306"><defs><clipPath id="a" transform="translate(1 1)"><rect width="490" height="304" fill="none"/></clipPath></defs><g clip-path="url(#a)"><path d="M1-1H0V1H1ZM8-1H6V1H8Zm7,0H13V1h2Zm7,0H20V1h2Zm7,0H27V1h2Zm7,0H34V1h2Zm7,0H41V1h2Zm7,0H48V1h2Zm7,0H55V1h2Zm7,0H62V1h2Zm7,0H69V1h2Zm7,0H76V1h2Zm7,0H83V1h2Zm7,0H90V1h2Zm7,0H97V1h2Zm7,0h-2V1h2Zm7,0h-2V1h2Zm7,0h-2V1h2Zm7,0h-2V1h2Zm7,0h-2V1h2Zm7,0h-2V1h2Zm7,0h-2V1h2Zm7,0h-2V1h2Zm7,0h-2V1h2Zm7,0h-2V1h2Zm7,0h-2V1h2Zm7,0h-2V1h2Zm7,0h-2V1h2Zm7,0h-2V1h2Zm7,0h-2V1h2Zm7,0h-2V1h2Zm7,0h-2V1h2Zm7,0h-2V1h2Zm7,0h-2V1h2Zm7,0h-2V1h2Zm7,0h-2V1h2Zm7,0h-2V1h2Zm7,0h-2V1h2Zm7,0h-2V1h2Zm7,0h-2V1h2Zm7,0h-2V1h2Zm7,0h-2V1h2Zm7,0h-2V1h2Zm7,0h-2V1h2Zm7,0h-2V1h2Zm7,0h-2V1h2Zm7,0h-2V1h2Zm7,0h-2V1h2Zm7,0h-2V1h2Zm7,0h-2V1h2Zm7,0h-2V1h2Zm7,0h-2V1h2Zm7,0h-2V1h2Zm7,0h-2V1h2Zm7,0h-2V1h2Zm7,0h-2V1h2Zm7,0h-2V1h2Zm7,0h-2V1h2Zm7,0h-2V1h2Zm7,0h-2V1h2Zm7,0h-2V1h2Zm7,0h-2V1h2Zm7,0h-2V1h2Zm7,0h-2V1h2Zm7,0h-2V1h2Zm7,0h-2V1h2Zm7,0h-2V1h2Zm7,0h-2V1h2Zm7,0h-2V1h2Zm7,0h-2V1h2Zm6,0h-1V1h1Zm1,2V0h-2V1Zm0,7.07v-2h-2v2Zm0,7.07v-2h-2v2Zm0,7.07v-2h-2v2Zm0,7.07v-2h-2v2Zm0,7.07v-2h-2v2Zm0,7.07v-2h-2v2Zm0,7.07v-2h-2v2Zm0,7.07v-2h-2v2Zm0,7.07v-2h-2v2Zm0,7.07v-2h-2v2Zm0,7.07v-2h-2v2Zm0,7.07v-2h-2v2Zm0,7.07v-2h-2v2Zm0,7.07V98h-2v2Zm0,7.07v-2h-2v2Zm0,7.07v-2h-2v2Zm0,7.07v-2h-2v2Zm0,7.07v-2h-2v2Zm0,7.07v-2h-2v2Zm0,7.07v-2h-2v2Zm0,7.07v-2h-2v2Zm0,7.06v-2h-2v2Zm0,7.07v-2h-2v2Zm0,7.07v-2h-2v2Zm0,7.07v-2h-2v2Zm0,7.07v-2h-2v2Zm0,7.07v-2h-2v2Zm0,7.07v-2h-2v2Zm0,7.07v-2h-2v2Zm0,7.07v-2h-2v2Zm0,7.07v-2h-2v2Zm0,7.07v-2h-2v2Zm0,7.07v-2h-2v2Zm0,7.07v-2h-2v2Zm0,7.07v-2h-2v2Zm0,7.07v-2h-2v2Zm0,7.07v-2h-2v2Zm0,7.07v-2h-2v2Zm0,7.07v-2h-2v2Zm0,7.07v-2h-2v2Zm0,7.07v-2h-2v2Zm0,7.07v-2h-2v2Zm0,6.06v-1h-2v1Zm-2,1h1v-2h-1Zm-7,0h2v-2h-2Zm-7,0h2v-2h-2Zm-7,0h2v-2h-2Zm-7,0h2v-2h-2Zm-7,0h2v-2h-2Zm-7,0h2v-2h-2Zm-7,0h2v-2h-2Zm-7,0h2v-2h-2Zm-7,0h2v-2h-2Zm-7,0h2v-2h-2Zm-7,0h2v-2h-2Zm-7,0h2v-2h-2Zm-7,0h2v-2h-2Zm-7,0h2v-2h-2Zm-7,0h2v-2h-2Zm-7,0h2v-2h-2Zm-7,0h2v-2h-2Zm-7,0h2v-2h-2Zm-7,0h2v-2h-2Zm-7,0h2v-2h-2Zm-7,0h2v-2h-2Zm-7,0h2v-2h-2Zm-7,0h2v-2h-2Zm-7,0h2v-2h-2Zm-7,0h2v-2h-2Zm-7,0h2v-2h-2Zm-7,0h2v-2h-2Zm-7,0h2v-2h-2Zm-7,0h2v-2h-2Zm-7,0h2v-2h-2Zm-7,0h2v-2h-2Zm-7,0h2v-2h-2Zm-7,0h2v-2h-2Zm-7,0h2v-2h-2Zm-7,0h2v-2h-2Zm-7,0h2v-2h-2Zm-7,0h2v-2h-2Zm-7,0h2v-2h-2Zm-7,0h2v-2h-2Zm-7,0h2v-2h-2Zm-7,0h2v-2h-2Zm-7,0h2v-2h-2Zm-7,0h2v-2h-2Zm-7,0h2v-2h-2Zm-7,0h2v-2h-2Zm-7,0h2v-2h-2Zm-7,0h2v-2h-2Zm-7,0h2v-2h-2Zm-7,0h2v-2h-2Zm-7,0h2v-2h-2Zm-7,0h2v-2h-2Zm-7,0h2v-2h-2Zm-7,0h2v-2h-2Zm-7,0h2v-2h-2Zm-7,0h2v-2h-2Zm-7,0h2v-2H97Zm-7,0h2v-2H90Zm-7,0h2v-2H83Zm-7,0h2v-2H76Zm-7,0h2v-2H69Zm-7,0h2v-2H62Zm-7,0h2v-2H55Zm-7,0h2v-2H48Zm-7,0h2v-2H41Zm-7,0h2v-2H34Zm-7,0h2v-2H27Zm-7,0h2v-2H20Zm-7,0h2v-2H13Zm-7,0H8v-2H6Zm-6,0H1v-2H0Zm-1-2v1H1v-1Zm0-7.07v2H1v-2Zm0-7.07v2H1v-2Zm0-7.07v2H1v-2Zm0-7.07v2H1v-2Zm0-7.07v2H1v-2Zm0-7.07v2H1v-2Zm0-7.07v2H1v-2Zm0-7.07v2H1v-2Zm0-7.07v2H1v-2Zm0-7.07v2H1v-2Zm0-7.07v2H1v-2Zm0-7.07v2H1v-2Zm0-7.07v2H1v-2ZM-1,204v2H1v-2Zm0-7.07v2H1v-2Zm0-7.07v2H1v-2Zm0-7.07v2H1v-2Zm0-7.07v2H1v-2Zm0-7.07v2H1v-2Zm0-7.07v2H1v-2Zm0-7.06v2H1v-2Zm0-7.07v2H1v-2Zm0-7.07v2H1v-2Zm0-7.07v2H1v-2Zm0-7.07v2H1v-2Zm0-7.07v2H1v-2Zm0-7.07v2H1v-2ZM-1,105v2H1v-2ZM-1,98v2H1V98Zm0-7.07v2H1v-2Zm0-7.07v2H1v-2Zm0-7.07v2H1v-2Zm0-7.07v2H1v-2Zm0-7.07v2H1v-2Zm0-7.07v2H1v-2Zm0-7.07v2H1v-2Zm0-7.07v2H1v-2Zm0-7.07v2H1v-2Zm0-7.07v2H1v-2Zm0-7.07v2H1v-2Zm0-7.07v2H1v-2Zm0-7.07v2H1v-2ZM-1,0V1H1V0ZM0,304H-1v1H0Zm490,0v1h1v-1ZM490,0h1V-1h-1ZM0,0V-1H-1V0ZM1-.5H0v1H1Zm7,0H6v1H8Zm7,0H13v1h2Zm7,0H20v1h2Zm7,0H27v1h2Zm7,0H34v1h2Zm7,0H41v1h2Zm7,0H48v1h2Zm7,0H55v1h2Zm7,0H62v1h2Zm7,0H69v1h2Zm7,0H76v1h2Zm7,0H83v1h2Zm7,0H90v1h2Zm7,0H97v1h2Zm7,0h-2v1h2Zm7,0h-2v1h2Zm7,0h-2v1h2Zm7,0h-2v1h2Zm7,0h-2v1h2Zm7,0h-2v1h2Zm7,0h-2v1h2Zm7,0h-2v1h2Zm7,0h-2v1h2Zm7,0h-2v1h2Zm7,0h-2v1h2Zm7,0h-2v1h2Zm7,0h-2v1h2Zm7,0h-2v1h2Zm7,0h-2v1h2Zm7,0h-2v1h2Zm7,0h-2v1h2Zm7,0h-2v1h2Zm7,0h-2v1h2Zm7,0h-2v1h2Zm7,0h-2v1h2Zm7,0h-2v1h2Zm7,0h-2v1h2Zm7,0h-2v1h2Zm7,0h-2v1h2Zm7,0h-2v1h2Zm7,0h-2v1h2Zm7,0h-2v1h2Zm7,0h-2v1h2Zm7,0h-2v1h2Zm7,0h-2v1h2Zm7,0h-2v1h2Zm7,0h-2v1h2Zm7,0h-2v1h2Zm7,0h-2v1h2Zm7,0h-2v1h2Zm7,0h-2v1h2Zm7,0h-2v1h2Zm7,0h-2v1h2Zm7,0h-2v1h2Zm7,0h-2v1h2Zm7,0h-2v1h2Zm7,0h-2v1h2Zm7,0h-2v1h2Zm7,0h-2v1h2Zm7,0h-2v1h2Zm7,0h-2v1h2Zm7,0h-2v1h2Zm7,0h-2v1h2Zm7,0h-2v1h2Zm7,0h-2v1h2Zm7,0h-2v1h2Zm7,0h-2v1h2Zm7,0h-2v1h2Zm7,0h-2v1h2Zm6,0h-1v1h1ZM490.5,1V0h-1V1Zm0,7.07v-2h-1v2Zm0,7.07v-2h-1v2Zm0,7.07v-2h-1v2Zm0,7.07v-2h-1v2Zm0,7.07v-2h-1v2Zm0,7.07v-2h-1v2Zm0,7.07v-2h-1v2Zm0,7.07v-2h-1v2Zm0,7.07v-2h-1v2Zm0,7.07v-2h-1v2Zm0,7.07v-2h-1v2Zm0,7.07v-2h-1v2Zm0,7.07v-2h-1v2Zm0,7.07V98h-1v2Zm0,7.07v-2h-1v2Zm0,7.07v-2h-1v2Zm0,7.07v-2h-1v2Zm0,7.07v-2h-1v2Zm0,7.07v-2h-1v2Zm0,7.07v-2h-1v2Zm0,7.07v-2h-1v2Zm0,7.06v-2h-1v2Zm0,7.07v-2h-1v2Zm0,7.07v-2h-1v2Zm0,7.07v-2h-1v2Zm0,7.07v-2h-1v2Zm0,7.07v-2h-1v2Zm0,7.07v-2h-1v2Zm0,7.07v-2h-1v2Zm0,7.07v-2h-1v2Zm0,7.07v-2h-1v2Zm0,7.07v-2h-1v2Zm0,7.07v-2h-1v2Zm0,7.07v-2h-1v2Zm0,7.07v-2h-1v2Zm0,7.07v-2h-1v2Zm0,7.07v-2h-1v2Zm0,7.07v-2h-1v2Zm0,7.07v-2h-1v2Zm0,7.07v-2h-1v2Zm0,7.07v-2h-1v2Zm0,7.07v-2h-1v2Zm0,6.06v-1h-1v1Zm-1.5.5h1v-1h-1Zm-7,0h2v-1h-2Zm-7,0h2v-1h-2Zm-7,0h2v-1h-2Zm-7,0h2v-1h-2Zm-7,0h2v-1h-2Zm-7,0h2v-1h-2Zm-7,0h2v-1h-2Zm-7,0h2v-1h-2Zm-7,0h2v-1h-2Zm-7,0h2v-1h-2Zm-7,0h2v-1h-2Zm-7,0h2v-1h-2Zm-7,0h2v-1h-2Zm-7,0h2v-1h-2Zm-7,0h2v-1h-2Zm-7,0h2v-1h-2Zm-7,0h2v-1h-2Zm-7,0h2v-1h-2Zm-7,0h2v-1h-2Zm-7,0h2v-1h-2Zm-7,0h2v-1h-2Zm-7,0h2v-1h-2Zm-7,0h2v-1h-2Zm-7,0h2v-1h-2Zm-7,0h2v-1h-2Zm-7,0h2v-1h-2Zm-7,0h2v-1h-2Zm-7,0h2v-1h-2Zm-7,0h2v-1h-2Zm-7,0h2v-1h-2Zm-7,0h2v-1h-2Zm-7,0h2v-1h-2Zm-7,0h2v-1h-2Zm-7,0h2v-1h-2Zm-7,0h2v-1h-2Zm-7,0h2v-1h-2Zm-7,0h2v-1h-2Zm-7,0h2v-1h-2Zm-7,0h2v-1h-2Zm-7,0h2v-1h-2Zm-7,0h2v-1h-2Zm-7,0h2v-1h-2Zm-7,0h2v-1h-2Zm-7,0h2v-1h-2Zm-7,0h2v-1h-2Zm-7,0h2v-1h-2Zm-7,0h2v-1h-2Zm-7,0h2v-1h-2Zm-7,0h2v-1h-2Zm-7,0h2v-1h-2Zm-7,0h2v-1h-2Zm-7,0h2v-1h-2Zm-7,0h2v-1h-2Zm-7,0h2v-1h-2Zm-7,0h2v-1h-2Zm-7,0h2v-1H97Zm-7,0h2v-1H90Zm-7,0h2v-1H83Zm-7,0h2v-1H76Zm-7,0h2v-1H69Zm-7,0h2v-1H62Zm-7,0h2v-1H55Zm-7,0h2v-1H48Zm-7,0h2v-1H41Zm-7,0h2v-1H34Zm-7,0h2v-1H27Zm-7,0h2v-1H20Zm-7,0h2v-1H13Zm-7,0H8v-1H6Zm-6,0H1v-1H0ZM-.5,303v1h1v-1Zm0-7.07v2h1v-2Zm0-7.07v2h1v-2Zm0-7.07v2h1v-2Zm0-7.07v2h1v-2Zm0-7.07v2h1v-2Zm0-7.07v2h1v-2Zm0-7.07v2h1v-2Zm0-7.07v2h1v-2Zm0-7.07v2h1v-2Zm0-7.07v2h1v-2Zm0-7.07v2h1v-2Zm0-7.07v2h1v-2Zm0-7.07v2h1v-2Zm0-7.07v2h1v-2Zm0-7.07v2h1v-2Zm0-7.07v2h1v-2Zm0-7.07v2h1v-2Zm0-7.07v2h1v-2Zm0-7.07v2h1v-2Zm0-7.07v2h1v-2Zm0-7.06v2h1v-2Zm0-7.07v2h1v-2Zm0-7.07v2h1v-2Zm0-7.07v2h1v-2Zm0-7.07v2h1v-2Zm0-7.07v2h1v-2Zm0-7.07v2h1v-2Zm0-7.07v2h1v-2ZM-.5,98v2h1V98Zm0-7.07v2h1v-2Zm0-7.07v2h1v-2Zm0-7.07v2h1v-2Zm0-7.07v2h1v-2Zm0-7.07v2h1v-2Zm0-7.07v2h1v-2Zm0-7.07v2h1v-2Zm0-7.07v2h1v-2Zm0-7.07v2h1v-2Zm0-7.07v2h1v-2Zm0-7.07v2h1v-2Zm0-7.07v2h1v-2Zm0-7.07v2h1v-2ZM-.5,0V1h1V0ZM0,304H-.5v.5H0Zm490,0v.5h.5V304ZM490,0h.5V-.5H490ZM0,0V-.5H-.5V0Z" transform="translate(1 1)" fill="#666"/></g></svg>